<?xml version="1.0" encoding="utf-8"?>
<!-- Generator: Adobe Illustrator 18.1.1, SVG Export Plug-In . SVG Version: 6.00 Build 0)  -->
<!DOCTYPE svg PUBLIC "-//W3C//DTD SVG 1.1//EN" "http://www.w3.org/Graphics/SVG/1.1/DTD/svg11.dtd" [
	<!ENTITY st0 "fill:none;">
	<!ENTITY st1 "fill:#FFFFFF;">
]>
<svg version="1.1" id="Layer_1" xmlns="http://www.w3.org/2000/svg" xmlns:xlink="http://www.w3.org/1999/xlink" x="0px" y="0px"
	 viewBox="0 0 88 86" style="enable-background:new 0 0 88 86;" xml:space="preserve">
<rect style="&st0;" width="88" height="86"/>
<g>
	
		<image style="overflow:visible;opacity:0.1;" width="88" height="82" xlink:href="8B0DFD0B121174A3.png"  transform="matrix(1 0 0 1 0 0.253)">
	</image>
	<g>
		<path style="&st1;" d="M82.75,57v15c0,1.25-0.438,2.314-1.312,3.188C80.562,76.062,79.5,76.5,78.25,76.5h-69
			c-1.25,0-2.312-0.438-3.188-1.312C5.188,74.314,4.75,73.25,4.75,72V57c0-1.25,0.438-2.312,1.312-3.188
			C6.938,52.938,8,52.5,9.25,52.5h21.796l6.328,6.376c1.814,1.748,3.938,2.624,6.376,2.624s4.562-0.876,6.374-2.626l6.376-6.376
			h21.75c1.25,0,2.312,0.438,3.188,1.312C82.312,54.688,82.75,55.75,82.75,57z M64.75,28.5c1.312,0,2.234,0.608,2.766,1.828
			c0.53,1.282,0.312,2.374-0.656,3.282l-21,21c-0.564,0.594-1.266,0.89-2.11,0.89s-1.546-0.296-2.11-0.89l-21-21
			c-0.97-0.906-1.188-2-0.656-3.282c0.532-1.218,1.454-1.828,2.766-1.828h12v-21c0-0.812,0.296-1.516,0.89-2.11
			c0.594-0.594,1.296-0.89,2.11-0.89h12c0.812,0,1.516,0.296,2.11,0.89c0.592,0.594,0.89,1.298,0.89,2.11v21H64.75L64.75,28.5z
			 M63.86,69.61c0.592-0.594,0.89-1.296,0.89-2.11c0-0.812-0.298-1.514-0.89-2.108c-0.594-0.594-1.298-0.892-2.11-0.892
			s-1.516,0.298-2.11,0.89c-0.594,0.594-0.89,1.298-0.89,2.11c0,0.814,0.296,1.516,0.89,2.11c0.594,0.594,1.296,0.89,2.11,0.89
			C62.562,70.5,63.266,70.204,63.86,69.61z M75.86,69.61c0.592-0.594,0.89-1.296,0.89-2.11c0-0.812-0.298-1.514-0.89-2.108
			c-0.594-0.594-1.298-0.892-2.11-0.892c-0.814,0-1.516,0.298-2.11,0.89c-0.594,0.594-0.89,1.298-0.89,2.11
			c0,0.814,0.296,1.516,0.89,2.11s1.296,0.89,2.11,0.89C74.562,70.5,75.266,70.204,75.86,69.61z"/>
	</g>
</g>
</svg>
